<svg width="18" height="17" viewBox="0 0 18 17" fill="none" xmlns="http://www.w3.org/2000/svg">
<path d="M15.9961 15.8536L16.3496 16.2071L17.0567 15.5L16.7032 15.1465L15.9961 15.8536ZM13.7026 6.67648H13.2026C13.2026 9.81151 10.6611 12.3529 7.52608 12.3529V12.8529V13.3529C11.2134 13.3529 14.2026 10.3638 14.2026 6.67648H13.7026ZM7.52608 12.8529V12.3529C4.39105 12.3529 1.84961 9.81151 1.84961 6.67648H1.34961H0.849609C0.849609 10.3638 3.83877 13.3529 7.52608 13.3529V12.8529ZM1.34961 6.67648H1.84961C1.84961 3.54145 4.39105 1.00001 7.52608 1.00001V0.500008V7.62939e-06C3.83877 7.62939e-06 0.849609 2.98917 0.849609 6.67648H1.34961ZM7.52608 0.500008V1.00001C10.6611 1.00001 13.2026 3.54145 13.2026 6.67648H13.7026H14.2026C14.2026 2.98917 11.2134 7.62939e-06 7.52608 7.62939e-06V0.500008ZM11.9378 11.0882L11.5843 11.4418L15.9961 15.8536L16.3496 15.5L16.7032 15.1465L12.2914 10.7347L11.9378 11.0882Z" fill="#181818"/>
</svg>
